<svg width="20" height="20" viewBox="0 0 20 20" fill="none" xmlns="http://www.w3.org/2000/svg">
<path fill-rule="evenodd" clip-rule="evenodd" d="M10.0001 17.0833C13.9121 17.0833 17.0834 13.912 17.0834 9.99996C17.0834 6.08794 13.9121 2.91663 10.0001 2.91663C6.08806 2.91663 2.91675 6.08794 2.91675 9.99996C2.91675 13.912 6.08806 17.0833 10.0001 17.0833ZM10.0001 18.3333C14.6024 18.3333 18.3334 14.6023 18.3334 9.99996C18.3334 5.39758 14.6024 1.66663 10.0001 1.66663C5.39771 1.66663 1.66675 5.39758 1.66675 9.99996C1.66675 14.6023 5.39771 18.3333 10.0001 18.3333Z" fill="#707070"/>
<path fill-rule="evenodd" clip-rule="evenodd" d="M15.4419 7.05806C15.686 7.30213 15.686 7.69786 15.4419 7.94194L9.65916 13.7247C8.92691 14.4569 7.73974 14.457 7.00751 13.7247L4.55806 11.2752C4.31398 11.0312 4.31398 10.6355 4.55806 10.3914C4.80213 10.1473 5.19786 10.1473 5.44194 10.3914L7.89139 12.8408C8.13546 13.0849 8.53116 13.0849 8.77525 12.8408L14.5581 7.05806C14.8022 6.81398 15.1978 6.81398 15.4419 7.05806Z" fill="#707070"/>
</svg>
