<svg width="20" height="20" viewBox="0 0 20 20" fill="none" xmlns="http://www.w3.org/2000/svg">
<path fill-rule="evenodd" clip-rule="evenodd" d="M15.8333 4.58337H4.16667C3.93655 4.58337 3.75 4.76992 3.75 5.00004V15.8334C3.75 16.0635 3.93655 16.25 4.16667 16.25H15.8333C16.0634 16.25 16.25 16.0635 16.25 15.8334V5.00004C16.25 4.76992 16.0634 4.58337 15.8333 4.58337ZM4.16667 3.33337C3.24619 3.33337 2.5 4.07957 2.5 5.00004V15.8334C2.5 16.7539 3.24619 17.5 4.16667 17.5H15.8333C16.7538 17.5 17.5 16.7539 17.5 15.8334V5.00004C17.5 4.07957 16.7538 3.33337 15.8333 3.33337H4.16667Z" fill="#707070"/>
<path d="M5 2.49996C5 2.03973 5.3731 1.66663 5.83333 1.66663C6.29357 1.66663 6.66667 2.03973 6.66667 2.49996V3.33329C6.66667 3.79353 6.29357 4.16663 5.83333 4.16663C5.3731 4.16663 5 3.79353 5 3.33329V2.49996Z" fill="#707070"/>
<path d="M13.3333 2.49996C13.3333 2.03973 13.7063 1.66663 14.1666 1.66663C14.6268 1.66663 14.9999 2.03973 14.9999 2.49996V3.33329C14.9999 3.79353 14.6268 4.16663 14.1666 4.16663C13.7063 4.16663 13.3333 3.79353 13.3333 3.33329V2.49996Z" fill="#707070"/>
<path fill-rule="evenodd" clip-rule="evenodd" d="M15 7.29163C15 7.6368 14.7202 7.91663 14.375 7.91663H5.625C5.27983 7.91663 5 7.6368 5 7.29163C5 6.94645 5.27983 6.66663 5.625 6.66663H14.375C14.7202 6.66663 15 6.94645 15 7.29163Z" fill="#707070"/>
</svg>
