<svg width="16" height="17" viewBox="0 0 16 17" fill="none" xmlns="http://www.w3.org/2000/svg">
<path fill-rule="evenodd" clip-rule="evenodd" d="M10.5208 0.799667C11.2367 0.0837047 12.3975 0.0837047 13.1135 0.799667L14.4098 2.09603C15.1258 2.81199 15.1258 3.97279 14.4098 4.68875L13.1135 5.98511L9.22442 2.09603L10.5208 0.799667ZM8.57615 2.74419L12.4652 6.63328L4.95555 14.143C4.78364 14.3149 4.55048 14.4115 4.30736 14.4115H1.25631C1.00317 14.4115 0.797977 14.2062 0.797977 13.9531V10.9021C0.797977 10.6589 0.894548 10.4258 1.06646 10.2539L8.57615 2.74419ZM1.37427 15.5449C0.994575 15.5449 0.686768 15.8527 0.686768 16.2324C0.686768 16.6122 0.994575 16.9199 1.37427 16.9199H14.6659C15.0456 16.9199 15.3534 16.6122 15.3534 16.2324C15.3534 15.8527 15.0456 15.5449 14.6659 15.5449H1.37427Z" fill="#00798A"/>
</svg>
