<svg width="20" height="20" viewBox="0 0 20 20" fill="none" xmlns="http://www.w3.org/2000/svg">
<path fill-rule="evenodd" clip-rule="evenodd" d="M10.0001 17.0834C10.7692 17.0834 11.6791 16.5572 12.4637 15.2495C12.6932 14.8671 12.9002 14.434 13.0777 13.9584H6.92249C7.09998 14.434 7.30695 14.8671 7.53641 15.2495C8.32107 16.5572 9.23091 17.0834 10.0001 17.0834ZM6.5494 12.7084C6.35827 11.88 6.25008 10.9673 6.25008 10.0001C6.25008 9.03283 6.35827 8.12017 6.5494 7.29175H13.4507C13.6419 8.12017 13.7501 9.03283 13.7501 10.0001C13.7501 10.9673 13.6419 11.88 13.4507 12.7084H6.5494ZM14.4011 13.9584C14.1159 14.8374 13.7387 15.6213 13.2909 16.2742C14.3322 15.7269 15.2205 14.9281 15.8751 13.9584H14.4011ZM16.5472 12.7084H14.7301C14.9051 11.8592 15.0001 10.9482 15.0001 10.0001C15.0001 9.052 14.9051 8.14088 14.7301 7.29175H16.5472C16.8927 8.1261 17.0834 9.04083 17.0834 10.0001C17.0834 10.9593 16.8927 11.8741 16.5472 12.7084ZM5.27007 12.7084H3.45296C3.10743 11.8741 2.91675 10.9593 2.91675 10.0001C2.91675 9.04083 3.10743 8.1261 3.45296 7.29175H5.27007C5.09508 8.14088 5.00008 9.052 5.00008 10.0001C5.00008 10.9482 5.09508 11.8592 5.27007 12.7084ZM4.12511 13.9584H5.59906C5.88427 14.8374 6.26151 15.6213 6.70926 16.2742C5.66803 15.7269 4.7797 14.9281 4.12511 13.9584ZM6.92249 6.04175H13.0777C12.9002 5.56618 12.6932 5.13308 12.4637 4.75065C11.6791 3.44288 10.7692 2.91675 10.0001 2.91675C9.23091 2.91675 8.32107 3.44288 7.53641 4.75065C7.30695 5.13308 7.09998 5.56618 6.92249 6.04175ZM14.4011 6.04175H15.8751C15.2205 5.0721 14.3322 4.27323 13.2909 3.72596C13.7387 4.37886 14.1159 5.16275 14.4011 6.04175ZM6.70926 3.72596C6.26151 4.37886 5.88426 5.16275 5.59906 6.04175H4.1251C4.7797 5.0721 5.66803 4.27323 6.70926 3.72596ZM10.0001 1.66675C14.6024 1.66675 18.3334 5.39771 18.3334 10.0001C18.3334 14.6024 14.6024 18.3334 10.0001 18.3334C5.39771 18.3334 1.66675 14.6024 1.66675 10.0001C1.66675 5.39771 5.39771 1.66675 10.0001 1.66675Z" fill="#212121"/>
</svg>
