<svg width="21" height="20" viewBox="0 0 21 20" fill="none" xmlns="http://www.w3.org/2000/svg">
<path fill-rule="evenodd" clip-rule="evenodd" d="M14.0901 8.75C14.0901 11.5114 11.8515 13.75 9.09009 13.75C6.32866 13.75 4.09009 11.5114 4.09009 8.75C4.09009 5.98857 6.32866 3.75 9.09009 3.75C11.8515 3.75 14.0901 5.98857 14.0901 8.75ZM15.3401 8.75C15.3401 12.2017 12.5418 15 9.09009 15C5.6383 15 2.84009 12.2017 2.84009 8.75C2.84009 5.29822 5.6383 2.5 9.09009 2.5C12.5418 2.5 15.3401 5.29822 15.3401 8.75ZM14.0648 14.6086L13.6374 14.1812C13.9573 13.9131 14.2532 13.6173 14.5213 13.2973L14.9487 13.7247L17.4487 16.2247C17.6928 16.4688 17.6928 16.8645 17.4487 17.1086C17.2046 17.3527 16.8089 17.3527 16.5648 17.1086L14.0648 14.6086Z" fill="white"/>
</svg>
