<svg width="23" height="22" viewBox="0 0 23 22" fill="none" xmlns="http://www.w3.org/2000/svg">
<path fill-rule="evenodd" clip-rule="evenodd" d="M15.4651 9.625C15.4651 12.6626 13.0026 15.125 9.96509 15.125C6.92752 15.125 4.46509 12.6626 4.46509 9.625C4.46509 6.58743 6.92752 4.125 9.96509 4.125C13.0026 4.125 15.4651 6.58743 15.4651 9.625ZM16.8401 9.625C16.8401 13.4219 13.762 16.5 9.96509 16.5C6.16813 16.5 3.09009 13.4219 3.09009 9.625C3.09009 5.82804 6.16813 2.75 9.96509 2.75C13.762 2.75 16.8401 5.82804 16.8401 9.625ZM15.4373 16.0694L14.9672 15.5993C15.3191 15.3044 15.6445 14.979 15.9394 14.6271L16.4095 15.0972L19.1595 17.8472C19.428 18.1157 19.428 18.551 19.1595 18.8194C18.891 19.0879 18.4558 19.0879 18.1873 18.8194L15.4373 16.0694Z" fill="#707070"/>
</svg>
