<svg width="21" height="20" viewBox="0 0 21 20" fill="none" xmlns="http://www.w3.org/2000/svg">
<path fill-rule="evenodd" clip-rule="evenodd" d="M13.4933 5.00004C14.1102 5.00004 14.6488 4.66487 14.937 4.16671H16.8267C17.2869 4.16671 17.66 4.53981 17.66 5.00004V6.77172C16.2223 7.14176 15.16 8.44687 15.16 10C15.16 11.5532 16.2223 12.8583 17.66 13.2284V15C17.66 15.4603 17.2869 15.8334 16.8267 15.8334H14.937C14.6488 15.3352 14.1102 15 13.4933 15C12.8764 15 12.3378 15.3352 12.0497 15.8334H3.49333C3.03309 15.8334 2.65999 15.4603 2.65999 15V13.2284C4.09769 12.8583 5.15999 11.5532 5.15999 10C5.15999 8.44687 4.09769 7.14176 2.65999 6.77172V5.00004C2.65999 4.53981 3.03309 4.16671 3.49333 4.16671H12.0497C12.3378 4.66487 12.8764 5.00004 13.4933 5.00004ZM15.9933 10C15.9933 8.61929 17.1126 7.50004 18.4933 7.50004V5.00004C18.4933 4.07957 17.7472 3.33337 16.8267 3.33337H14.3267C14.3267 3.79361 13.9536 4.16671 13.4933 4.16671C13.0331 4.16671 12.66 3.79361 12.66 3.33337H3.49333C2.57285 3.33337 1.82666 4.07957 1.82666 5.00004V7.50004C3.20737 7.50004 4.32666 8.61929 4.32666 10C4.32666 11.3808 3.20737 12.5 1.82666 12.5V15C1.82666 15.9205 2.57285 16.6667 3.49333 16.6667H12.66C12.66 16.2065 13.0331 15.8334 13.4933 15.8334C13.9536 15.8334 14.3267 16.2065 14.3267 16.6667H16.8267C17.7472 16.6667 18.4933 15.9205 18.4933 15V12.5C17.1126 12.5 15.9933 11.3808 15.9933 10ZM13.4933 7.50004C13.9536 7.50004 14.3267 7.12695 14.3267 6.66671C14.3267 6.20647 13.9536 5.83337 13.4933 5.83337C13.0331 5.83337 12.66 6.20647 12.66 6.66671C12.66 7.12695 13.0331 7.50004 13.4933 7.50004ZM13.4933 10.8334C13.9536 10.8334 14.3267 10.4603 14.3267 10C14.3267 9.53979 13.9536 9.16671 13.4933 9.16671C13.0331 9.16671 12.66 9.53979 12.66 10C12.66 10.4603 13.0331 10.8334 13.4933 10.8334ZM14.3267 13.3334C14.3267 13.7936 13.9536 14.1667 13.4933 14.1667C13.0331 14.1667 12.66 13.7936 12.66 13.3334C12.66 12.8731 13.0331 12.5 13.4933 12.5C13.9536 12.5 14.3267 12.8731 14.3267 13.3334Z" fill="#707070"/>
</svg>
