<svg width="41" height="41" viewBox="0 0 41 41" fill="none" xmlns="http://www.w3.org/2000/svg">
<g clip-path="url(#clip0_1_479)">
<g clip-path="url(#clip1_1_479)">
<g clip-path="url(#clip2_1_479)">
<path d="M16.2697 0.650757C24.8959 0.650757 31.8887 7.64364 31.8887 16.2698C31.8887 19.6421 30.82 22.7648 29.0028 25.3176L40.7765 37.0952L37.0951 40.7766L25.3175 29.0029C22.7646 30.8201 19.642 31.8888 16.2697 31.8888C7.64352 31.8888 0.650635 24.896 0.650635 16.2698C0.650635 7.64364 7.64352 0.650757 16.2697 0.650757ZM16.2697 5.85711C10.5189 5.85711 5.85698 10.519 5.85698 16.2698C5.85698 22.0206 10.5189 26.6825 16.2697 26.6825C22.0205 26.6825 26.6824 22.0206 26.6824 16.2698C26.6824 10.519 22.0205 5.85711 16.2697 5.85711Z" fill="#008294"/>
</g>
</g>
</g>
<defs>
<clipPath id="clip0_1_479">
<rect width="41" height="41" fill="white"/>
</clipPath>
<clipPath id="clip1_1_479">
<rect width="41" height="41" fill="white"/>
</clipPath>
<clipPath id="clip2_1_479">
<rect width="41" height="41" fill="white"/>
</clipPath>
</defs>
</svg>
