<svg width="21" height="20" viewBox="0 0 21 20" fill="none" xmlns="http://www.w3.org/2000/svg">
<g clip-path="url(#clip0_1_446)">
<g clip-path="url(#clip1_1_446)">
<g clip-path="url(#clip2_1_446)">
<path fill-rule="evenodd" clip-rule="evenodd" d="M6.51892 14.6418C6.51891 14.6418 6.51893 14.6419 6.51892 14.6418C7.00678 14.8102 7.51792 14.9185 8.0412 14.9601C8.04119 14.9601 8.04121 14.9601 8.0412 14.9601C7.51792 14.9185 7.00678 14.8102 6.51892 14.6418ZM8.90663 14.9679C8.90662 14.9679 8.90664 14.9679 8.90663 14.9679V14.9679ZM11.0427 19.7194C8.9633 19.1623 7.4162 17.6101 6.77642 15.7124C7.30764 15.8476 7.85785 15.9225 8.41719 15.9313C9.0116 17.0772 10.0672 17.9791 11.4124 18.3395C13.9528 19.0202 16.5639 17.5127 17.2446 14.9724L18.6003 9.91276C18.6683 9.65876 18.5177 9.39763 18.2636 9.32956L15.6758 8.63615C15.6646 8.12889 15.5989 7.61549 15.4743 7.10321L18.6333 7.94967C19.6495 8.22193 20.2524 9.26639 19.9802 10.2825L18.6245 15.3421C17.7396 18.6446 14.3451 20.6043 11.0427 19.7194ZM10.0527 15.7885C9.81864 16.0226 9.46245 16.0602 9.1891 15.9013C9.48559 15.8736 9.78333 15.827 10.0809 15.7608C10.0715 15.7699 10.062 15.7791 10.0527 15.7885ZM12.3526 15.1722C12.1996 15.1312 12.0435 15.1057 11.8867 15.0958C12.4355 14.8047 12.9359 14.4469 13.3804 14.0355C13.7683 14.2211 14.1236 14.4718 14.43 14.7783C14.9029 15.2511 15.243 15.8401 15.416 16.4861C15.5181 16.8671 15.292 17.2588 14.911 17.3609C14.5299 17.463 14.1382 17.2369 14.0361 16.8558C13.9279 16.4521 13.7155 16.084 13.4199 15.7885C13.1244 15.493 12.7562 15.2804 12.3526 15.1722ZM14.2141 13.4031C14.172 13.361 14.1318 13.3169 14.0939 13.271C14.433 12.8498 14.7233 12.3916 14.9591 11.906C15.0239 11.9833 15.0732 12.0757 15.1011 12.1795C15.1227 12.2603 15.1652 12.3339 15.2243 12.393C15.2834 12.4521 15.357 12.4947 15.4378 12.5163C15.5185 12.5379 15.6036 12.5379 15.6842 12.5163C15.765 12.4947 15.8386 12.4521 15.8978 12.393C16.1767 12.1141 16.6289 12.1141 16.9079 12.393C17.1868 12.672 17.1868 13.1242 16.9079 13.4031C16.6715 13.6396 16.377 13.8096 16.054 13.8962C15.7311 13.9827 15.391 13.9827 15.068 13.8962C14.7451 13.8096 14.4506 13.6396 14.2141 13.4031Z" fill="#FFAD43"/>
<path fill-rule="evenodd" clip-rule="evenodd" d="M11.1936 2.15862L2.91419 4.37706C2.66016 4.44513 2.50941 4.70625 2.57747 4.96028L3.9332 10.0199C4.61386 12.5602 7.225 14.0677 9.76531 13.387C12.3056 12.7064 13.8131 10.0952 13.1325 7.55495L11.7767 2.49534C11.7087 2.2413 11.4476 2.09055 11.1936 2.15862ZM2.54445 2.99717C1.52832 3.26945 0.925308 4.31389 1.19758 5.33002L2.5533 10.3896C3.43818 13.692 6.83264 15.6518 10.135 14.7669C13.4375 13.8821 15.3972 10.4876 14.5124 7.18521L13.1566 2.1256C12.8844 1.10946 11.84 0.506455 10.8238 0.778724L2.54445 2.99717Z" fill="#FFAD43"/>
<path fill-rule="evenodd" clip-rule="evenodd" d="M5.49355 6.64397C5.43314 6.66016 5.37653 6.68808 5.32691 6.72615C5.2773 6.76422 5.23567 6.81168 5.2044 6.86584C5.17314 6.92 5.15284 6.97978 5.14468 7.04178C5.13652 7.10378 5.14065 7.16678 5.15683 7.22718C5.25894 7.60822 5.0328 7.9999 4.65175 8.102C4.27071 8.2041 3.87904 7.97797 3.77694 7.59692C3.7122 7.35531 3.69568 7.10331 3.72834 6.85531C3.76098 6.60732 3.84215 6.36818 3.96722 6.15156C4.0923 5.93493 4.2588 5.74506 4.45725 5.59279C4.6557 5.44051 4.88219 5.32882 5.12381 5.26407C5.36542 5.19934 5.61742 5.18282 5.86542 5.21547C6.11342 5.24812 6.35255 5.32929 6.56918 5.45437C6.7858 5.57943 6.97568 5.74594 7.12795 5.94439C7.28022 6.14283 7.39192 6.36933 7.45666 6.61095C7.55875 6.992 7.33263 7.38366 6.95158 7.48577C6.57054 7.58786 6.17886 7.36174 6.07676 6.98069C6.06057 6.92028 6.03265 6.86366 5.99458 6.81404C5.95652 6.76443 5.90905 6.72281 5.8549 6.69154C5.80074 6.66027 5.74095 6.63998 5.67895 6.63182C5.61695 6.62365 5.55395 6.62779 5.49355 6.64397Z" fill="#FFAD43"/>
<path fill-rule="evenodd" clip-rule="evenodd" d="M10.0933 5.41141C9.9713 5.4441 9.86729 5.52391 9.80414 5.63329C9.74099 5.74266 9.72388 5.87264 9.75656 5.99463C9.85867 6.37567 9.63254 6.76735 9.25149 6.86944C8.87044 6.97155 8.47877 6.74541 8.37668 6.36437C8.24593 5.87641 8.31437 5.35649 8.56696 4.919C8.81955 4.48151 9.23558 4.16227 9.72355 4.03152C10.2115 3.90077 10.7314 3.96922 11.1689 4.22181C11.6064 4.47439 11.9257 4.89043 12.0563 5.37839C12.1585 5.75944 11.9323 6.15111 11.5513 6.25321C11.1702 6.35531 10.7786 6.12918 10.6765 5.74814C10.6438 5.62615 10.564 5.52214 10.4546 5.45898C10.3453 5.39584 10.2153 5.37873 10.0933 5.41141Z" fill="#FFAD43"/>
<path fill-rule="evenodd" clip-rule="evenodd" d="M5.25596 9.8878C5.5349 9.60885 5.98717 9.60885 6.26611 9.8878C6.62075 10.2424 7.06249 10.4974 7.54693 10.6272C8.03138 10.757 8.54146 10.757 9.0259 10.6272C9.51034 10.4974 9.95208 10.2424 10.3067 9.8878C10.6614 9.53314 10.9164 9.09139 11.0462 8.60696C11.1483 8.22591 11.5399 7.99977 11.921 8.10188C12.302 8.20397 12.5282 8.59564 12.4261 8.97669C12.2314 9.70333 11.8488 10.366 11.3169 10.8979C10.7849 11.4299 10.1223 11.8125 9.39564 12.0071C8.66898 12.2019 7.90386 12.2019 7.17719 12.0071C6.45052 11.8125 5.78791 11.4299 5.25596 10.8979C4.97702 10.6189 4.97702 10.1668 5.25596 9.8878Z" fill="#FFAD43"/>
</g>
</g>
</g>
<defs>
<clipPath id="clip0_1_446">
<rect width="20" height="20" fill="white" transform="translate(0.5)"/>
</clipPath>
<clipPath id="clip1_1_446">
<rect width="20" height="20" fill="white" transform="translate(0.5)"/>
</clipPath>
<clipPath id="clip2_1_446">
<rect width="20" height="20" fill="white" transform="translate(0.5)"/>
</clipPath>
</defs>
</svg>
