<svg width="21" height="20" viewBox="0 0 21 20" fill="none" xmlns="http://www.w3.org/2000/svg">
<g clip-path="url(#clip0_1_434)">
<g clip-path="url(#clip1_1_434)">
<path fill-rule="evenodd" clip-rule="evenodd" d="M12.4843 15.6193C13.2274 14.1331 13.7282 11.9801 13.7282 9.5239C13.7282 6.504 11.8464 3.73973 10.4883 2.16414C10.4626 2.13428 10.4416 2.12194 10.4296 2.11645C10.4166 2.1105 10.4051 2.10844 10.3949 2.10844C10.3847 2.10844 10.3732 2.1105 10.3602 2.11645C10.3482 2.12194 10.3272 2.13428 10.3015 2.16414C8.94332 3.73973 7.06156 6.504 7.06156 9.5239C7.06156 11.9801 7.56239 14.1331 8.30548 15.6193C9.09128 17.1909 9.91255 17.6191 10.3949 17.6191C10.8772 17.6191 11.6985 17.1909 12.4843 15.6193ZM15.1493 9.16163C15.7183 9.03253 16.2801 8.95496 16.8088 8.91226C17.1911 7.50294 17.1327 5.9878 16.9676 4.828C16.9629 4.7956 16.9543 4.78037 16.9509 4.77515C16.9469 4.76898 16.9433 4.76599 16.9405 4.76425C16.9378 4.76252 16.9335 4.76051 16.9263 4.75955C16.9201 4.75874 16.9025 4.75743 16.8713 4.76716C16.1216 5.00072 15.2482 5.34614 14.4198 5.83465C14.2424 5.37995 14.0413 4.9432 13.8259 4.52765C14.7537 3.99754 15.6911 3.63853 16.4464 3.40323C17.3526 3.12094 18.2481 3.68694 18.3819 4.62657C18.5413 5.74607 18.6322 7.31023 18.289 8.87255C18.33 8.87357 18.3703 8.87475 18.4102 8.87607C19.3588 8.90759 20.0182 9.73666 19.8356 10.668C19.5023 12.3667 18.6743 14.9965 16.641 16.6137C14.523 18.2984 12.2042 19.185 10.5001 19.1117C8.7959 19.185 6.47711 18.2984 4.35903 16.6137C2.32575 14.9965 1.4978 12.3667 1.16452 10.668C0.981784 9.73666 1.64122 8.90759 2.58981 8.87607C2.62971 8.87475 2.67015 8.87357 2.71111 8.87255C2.36797 7.31023 2.45877 5.74607 2.61821 4.62657C2.75204 3.68694 3.6475 3.12094 4.55367 3.40323C5.26485 3.62479 6.13753 3.95602 7.01163 4.43651C6.79393 4.84927 6.5899 5.28351 6.40899 5.73598C5.63249 5.29921 4.82701 4.98467 4.12877 4.76716C4.09753 4.75743 4.08004 4.75874 4.07387 4.75955C4.06658 4.76051 4.06233 4.76252 4.05958 4.76425C4.05684 4.76599 4.05319 4.76898 4.0492 4.77515C4.04582 4.78037 4.03713 4.7956 4.03252 4.828C3.86734 5.9878 3.80895 7.50294 4.19124 8.91226C4.65537 8.94974 5.14487 9.01408 5.64244 9.11657C5.79889 5.73214 7.86347 2.80445 9.21945 1.23141C9.85335 0.496026 10.9364 0.496025 11.5703 1.23141C12.9323 2.81142 15.0092 5.75815 15.1493 9.16163ZM13.3478 16.996C14.3124 15.469 14.9745 13.2105 15.1244 10.6393C16.2533 10.335 17.4191 10.2725 18.3628 10.3039C18.3956 10.3049 18.4116 10.3119 18.4172 10.3148C18.4238 10.318 18.4271 10.3213 18.4291 10.3239C18.4311 10.3264 18.4336 10.3305 18.4353 10.3376C18.4368 10.3436 18.4401 10.3609 18.4337 10.3929C18.1176 12.0042 17.3738 14.2055 15.7518 15.4957C14.9363 16.1443 14.1164 16.6409 13.3478 16.996ZM7.35321 16.8519C6.67274 16.5106 5.95883 16.0609 5.2483 15.4957C3.62631 14.2055 2.88248 12.0042 2.56636 10.3929C2.56006 10.3609 2.56326 10.3436 2.56474 10.3376C2.56647 10.3305 2.56894 10.3264 2.57096 10.3239C2.57297 10.3213 2.57634 10.318 2.5829 10.3148C2.58846 10.3119 2.60454 10.3049 2.63724 10.3039C3.52163 10.2745 4.601 10.3275 5.6622 10.5847C5.80151 13.0987 6.43008 15.3175 7.35321 16.8519Z" fill="#31775A"/>
</g>
</g>
<defs>
<clipPath id="clip0_1_434">
<rect width="20" height="20" fill="white" transform="translate(0.5)"/>
</clipPath>
<clipPath id="clip1_1_434">
<rect width="20" height="20" fill="white" transform="translate(0.5)"/>
</clipPath>
</defs>
</svg>
