<svg width="21" height="20" viewBox="0 0 21 20" fill="none" xmlns="http://www.w3.org/2000/svg">
<g clip-path="url(#clip0_1_422)">
<g clip-path="url(#clip1_1_422)">
<path fill-rule="evenodd" clip-rule="evenodd" d="M6.48055 2.23323L7.4342 3.25508C7.47739 3.2866 7.51863 3.32254 7.55738 3.363L8.9404 4.80714L10.0873 2.23323L6.48055 2.23323ZM4.76999 2.39896L6.0178 3.73601L2.00999 12.4476C1.85335 12.7881 1.92171 13.1898 2.18214 13.4593L3.52487 14.8488C3.54528 14.8778 3.56821 14.9056 3.59371 14.9319L7.2598 18.712C7.55942 19.0209 7.97144 19.1953 8.40182 19.1953H13.2446C13.5852 19.1953 13.8673 18.9457 13.9183 18.6195C14.0173 18.5566 14.1065 18.4729 14.1789 18.3684L18.8745 11.5882C19.2624 11.0281 18.9176 10.2775 18.2787 10.1735L17.1855 6.81789C16.9894 6.21614 16.2538 5.99384 15.7573 6.38634L11.3023 9.90827C11.2073 9.98327 11.1333 10.0692 11.0783 10.1615H8.15996C8.12417 10.1615 8.08913 10.1634 8.05489 10.1672L9.7102 6.42496C9.73917 6.35946 9.7599 6.29182 9.77262 6.22338C9.81751 6.16593 9.85647 6.10167 9.88802 6.03084L11.6178 2.14867C11.8857 1.54742 11.4456 0.86958 10.7874 0.869583L5.43461 0.869606C4.63973 0.869609 4.22766 1.81784 4.76999 2.39896ZM12.2652 17.8316L7.44227 11.6285C7.43496 11.6192 7.42788 11.6097 7.42101 11.6002L5.80509 15.2534L8.23868 17.7626C8.28148 17.8067 8.34034 17.8316 8.40182 17.8316H12.2652ZM3.37871 12.7352L7.0232 4.81331L8.31821 6.20093L4.78441 14.1899L3.37871 12.7352ZM9.08913 11.5251L13.4103 17.083L17.2557 11.5305H11.866C11.8305 11.5305 11.7958 11.5286 11.762 11.5251H9.08913ZM16.8406 10.1615H13.1808L16.0911 7.86078L16.8406 10.1615Z" fill="#FFAD43"/>
</g>
</g>
<defs>
<clipPath id="clip0_1_422">
<rect width="20" height="20" fill="white" transform="translate(0.5)"/>
</clipPath>
<clipPath id="clip1_1_422">
<rect width="18.1818" height="20" fill="white" transform="translate(1.40906)"/>
</clipPath>
</defs>
</svg>
