<svg width="21" height="20" viewBox="0 0 21 20" fill="none" xmlns="http://www.w3.org/2000/svg">
<g clip-path="url(#clip0_1_416)">
<g clip-path="url(#clip1_1_416)">
<path fill-rule="evenodd" clip-rule="evenodd" d="M1.17737 17.2592C1.63248 17.4687 2.09594 17.6633 2.56712 17.8421C4.99989 18.7654 7.63836 19.2709 10.3949 19.2709C13.1524 19.2709 15.7918 18.765 18.2253 17.8411C18.6964 17.6622 19.1598 17.4676 19.6149 17.258L18.9025 15.9345L17.9658 14.1943L17.1891 12.7511L11.2482 1.714L10.3965 0.131592L9.54471 1.714L1.88979 15.9356L1.17737 17.2592ZM10.3965 3.29641L15.778 13.2944C14.0871 13.8597 12.2776 14.1659 10.3966 14.1659C8.51549 14.1659 6.70591 13.8596 5.01499 13.2943L10.3965 3.29641ZM10.3966 15.7995C8.23511 15.7995 6.15977 15.4307 4.23007 14.7526L3.28467 16.509C5.499 17.3249 7.8935 17.7709 10.3949 17.7709C12.8973 17.7709 15.2927 17.3246 17.5077 16.508L16.5629 14.7527C14.6332 15.4307 12.558 15.7995 10.3966 15.7995ZM11.9999 12C12.5522 12 12.9999 11.5523 12.9999 11C12.9999 10.4477 12.5522 10 11.9999 10C11.4476 10 10.9999 10.4477 10.9999 11C10.9999 11.5523 11.4476 12 11.9999 12ZM9.68665 12C9.68665 12.5523 9.23893 13 8.68665 13C8.13436 13 7.68665 12.5523 7.68665 12C7.68665 11.4477 8.13436 11 8.68665 11C9.23893 11 9.68665 11.4477 9.68665 12ZM10.3256 9C10.8778 9 11.3256 8.55229 11.3256 8C11.3256 7.44771 10.8778 7 10.3256 7C9.77328 7 9.32556 7.44771 9.32556 8C9.32556 8.55229 9.77328 9 10.3256 9Z" fill="#7A1D47"/>
</g>
</g>
<defs>
<clipPath id="clip0_1_416">
<rect width="20" height="20" fill="white" transform="translate(0.5)"/>
</clipPath>
<clipPath id="clip1_1_416">
<rect width="19" height="20" fill="white" transform="translate(1)"/>
</clipPath>
</defs>
</svg>
