<svg width="21" height="20" viewBox="0 0 21 20" fill="none" xmlns="http://www.w3.org/2000/svg">
<g clip-path="url(#clip0_1_440)">
<g clip-path="url(#clip1_1_440)">
<g clip-path="url(#clip2_1_440)">
<path fill-rule="evenodd" clip-rule="evenodd" d="M15.936 9.49213H17.1463C18.3827 9.49213 19.3529 10.5525 19.2434 11.7841L18.5905 19.1171C18.5542 19.5243 18.2131 19.8365 17.8041 19.8365C17.3405 19.8365 16.9766 19.4388 17.0178 18.9771L17.6706 11.6441C17.698 11.3362 17.4555 11.0711 17.1463 11.0711H2.801C2.49189 11.0711 2.24935 11.3362 2.27676 11.6441L2.92957 18.9771C2.97067 19.4388 2.60685 19.8365 2.1432 19.8365C1.73432 19.8365 1.39309 19.5243 1.35684 19.1171L0.704027 11.7841C0.594392 10.5525 1.5646 9.49213 2.801 9.49213H3.90922C3.80382 8.74044 3.75041 8.03159 3.75041 7.40731C3.75041 6.99161 3.77409 6.58411 3.82104 6.18761H1.28947C0.853459 6.18761 0.5 5.83416 0.5 5.39814C0.5 4.96213 0.853459 4.60866 1.28947 4.60866H3.92105C3.99706 4.60866 4.07057 4.61941 4.14013 4.63946C4.93196 2.02276 6.91295 0.182465 9.92262 0.182465C12.9453 0.182465 14.9303 2.03859 15.7153 4.6732C15.8113 4.63169 15.9172 4.60866 16.0284 4.60866H18.66C19.096 4.60866 19.4495 4.96213 19.4495 5.39814C19.4495 5.83416 19.096 6.18761 18.66 6.18761H16.0284L16.0242 6.1876C16.0712 6.58411 16.0948 6.9916 16.0948 7.40731C16.0948 8.03159 16.0415 8.74044 15.936 9.49213ZM14.3403 9.49213C14.4567 8.73107 14.5159 8.0178 14.5159 7.40731C14.5159 5.68229 14.0427 4.24979 13.2714 3.28397C12.5309 2.35702 11.4445 1.76141 9.92262 1.76141C8.40072 1.76141 7.31429 2.35702 6.57393 3.28397C5.80251 4.24979 5.32936 5.68229 5.32936 7.40731C5.32936 8.0178 5.38847 8.73107 5.50497 9.49213H14.3403ZM8.77868 6.1643C8.77868 6.45497 8.54304 6.69061 8.25237 6.69061C7.96168 6.69061 7.72605 6.45497 7.72605 6.1643C7.72605 5.87362 7.96168 5.63798 8.25237 5.63798C8.54304 5.63798 8.77868 5.87362 8.77868 6.1643ZM9.83132 6.1643C9.83132 7.03633 9.12439 7.74324 8.25237 7.74324C7.38034 7.74324 6.67342 7.03633 6.67342 6.1643C6.67342 5.29226 7.38034 4.58535 8.25237 4.58535C9.12439 4.58535 9.83132 5.29226 9.83132 6.1643ZM11.6971 6.69061C11.9877 6.69061 12.2234 6.45497 12.2234 6.1643C12.2234 5.87362 11.9877 5.63798 11.6971 5.63798C11.4064 5.63798 11.1707 5.87362 11.1707 6.1643C11.1707 6.45497 11.4064 6.69061 11.6971 6.69061ZM11.6971 7.74324C12.5691 7.74324 13.276 7.03633 13.276 6.1643C13.276 5.29226 12.5691 4.58535 11.6971 4.58535C10.825 4.58535 10.1181 5.29226 10.1181 6.1643C10.1181 7.03633 10.825 7.74324 11.6971 7.74324ZM5.88292 15.2632V14.2105H9.04081V15.2632H5.88292ZM4.30397 13.1579C4.30397 12.8673 4.53961 12.6316 4.83028 12.6316H10.0934C10.3841 12.6316 10.6198 12.8673 10.6198 13.1579V16.3158C10.6198 16.6064 10.3841 16.8421 10.0934 16.8421H4.83028C4.53961 16.8421 4.30397 16.6064 4.30397 16.3158V13.1579ZM11.4328 13.5986C11.4328 13.1626 11.7863 12.8092 12.2223 12.8092H14.8539C15.2899 12.8092 15.6434 13.1626 15.6434 13.5986C15.6434 14.0346 15.2899 14.3881 14.8539 14.3881H12.2223C11.7863 14.3881 11.4328 14.0346 11.4328 13.5986ZM12.2223 14.9597C11.7863 14.9597 11.4328 15.3132 11.4328 15.7492C11.4328 16.1852 11.7863 16.5386 12.2223 16.5386H14.8539C15.2899 16.5386 15.6434 16.1852 15.6434 15.7492C15.6434 15.3132 15.2899 14.9597 14.8539 14.9597H12.2223Z" fill="#7A1D47"/>
</g>
</g>
</g>
<defs>
<clipPath id="clip0_1_440">
<rect width="20" height="20" fill="white" transform="translate(0.5)"/>
</clipPath>
<clipPath id="clip1_1_440">
<rect width="20" height="20" fill="white" transform="translate(0.5)"/>
</clipPath>
<clipPath id="clip2_1_440">
<rect width="20" height="20" fill="white" transform="translate(0.5)"/>
</clipPath>
</defs>
</svg>
