<svg width="21" height="20" viewBox="0 0 21 20" fill="none" xmlns="http://www.w3.org/2000/svg">
<g clip-path="url(#clip0_1_410)">
<g clip-path="url(#clip1_1_410)">
<g clip-path="url(#clip2_1_410)">
<path fill-rule="evenodd" clip-rule="evenodd" d="M6.18406 2.68788L4.25283 5.08452C5.06044 5.50558 5.40778 6.58849 4.82197 7.42436L3.28001 9.62455H8.79259L7.25063 7.42436C6.6141 6.51611 7.07932 5.31619 8.03961 4.99062L6.18406 2.68788ZM9.89789 4.90609L6.57339 0.780393C6.37325 0.532024 5.99486 0.532024 5.79473 0.780393L2.47022 4.90609L2.4611 4.91741L2.30655 5.10921L1.91722 5.59237C1.73975 5.81261 1.78733 6.10519 1.9656 6.27283C2.00849 6.31317 2.05894 6.34627 2.11565 6.36939C2.17328 6.3929 2.23738 6.40609 2.30655 6.40609H2.92705H3.17337H3.18791H3.36902H3.51171C3.59264 6.40609 3.64005 6.49721 3.5936 6.56348L3.51171 6.68033L2.79062 7.70924L2.65266 7.90609L1.44831 9.62455L1.44577 9.62817L1.35805 9.75334L0.948592 10.3376C0.716362 10.669 0.95341 11.1245 1.35805 11.1245H2.07149H2.22434H2.22877H5.30688V13.8343C4.92667 13.7963 4.54099 13.7768 4.15077 13.7768C3.44793 13.7768 2.75983 13.8399 2.09182 13.9608C1.66261 14.0384 1.41949 14.4837 1.55526 14.8982C1.67784 15.2724 2.06745 15.4861 2.45562 15.4198C3.00607 15.3258 3.57235 15.2768 4.15077 15.2768C7.3491 15.2768 10.1981 16.7795 12.0277 19.1216C12.236 19.3882 12.5861 19.5085 12.9076 19.4032C13.3824 19.2477 13.5832 18.6852 13.2795 18.2885C12.5984 17.3988 11.7901 16.6116 10.8819 15.9539C12.7029 14.028 15.282 12.8263 18.1418 12.8263C18.6301 12.8263 19.1102 12.8613 19.5798 12.929C20.0527 12.9972 20.5004 12.6463 20.5004 12.1685C20.5004 11.819 20.2556 11.5149 19.9102 11.4616C19.3338 11.3725 18.7432 11.3263 18.1418 11.3263C17.7584 11.3263 17.3794 11.3451 17.0056 11.3818V9.21951H18.688H18.6924H18.8453H19.5587C19.9633 9.21951 20.2004 8.76392 19.9682 8.43255L19.5587 7.84831L19.471 7.72314L19.4684 7.71951L18.8623 6.85466L18.7244 6.65781L18.0033 5.6289L17.9214 5.51205C17.8749 5.44578 17.9223 5.35466 18.0033 5.35466H18.1273H18.1418H18.146H18.3882H19.0087C19.1631 5.35466 19.2922 5.28889 19.3807 5.18946C19.4092 5.15741 19.4335 5.12186 19.453 5.08389C19.5378 4.91923 19.5334 4.70902 19.398 4.54094L19.0087 4.05778L18.8541 3.86598L18.845 3.85466L16.411 0.834104C16.2109 0.585735 15.8325 0.585735 15.6323 0.834104L13.1984 3.85466L13.1892 3.86598L13.0347 4.05778L12.6454 4.54094C12.5767 4.6261 12.5418 4.72207 12.535 4.81746C12.5342 4.82868 12.5338 4.83989 12.5338 4.85107C12.5331 5.11002 12.7369 5.35466 13.0347 5.35466H13.6552H13.798C13.8317 5.35466 13.8597 5.3705 13.8774 5.39378L13.8807 5.39848C13.9025 5.43075 13.9057 5.47523 13.8799 5.51205L13.798 5.6289L13.0769 6.65781L13.0347 6.71804L12.9404 6.8526L12.3328 7.71951L12.3303 7.72314L12.2426 7.84831L11.8331 8.43255C11.6009 8.76392 11.8379 9.21951 12.2426 9.21951H12.956H13.1089H13.1133H15.5056V11.6301C13.2349 12.1632 11.2238 13.3698 9.69455 15.0277C9.65835 15.0669 9.62761 15.1078 9.60203 15.1498C8.73174 14.6799 7.79393 14.319 6.80688 14.0854V11.1245H9.84384H9.84827H10.0011H10.7146C11.1192 11.1245 11.3562 10.669 11.124 10.3376L10.7146 9.75334L10.6268 9.62817L10.6243 9.62455L9.41994 7.90609L9.28199 7.70924L8.56089 6.68033L8.479 6.56348C8.43256 6.49721 8.47997 6.40609 8.56089 6.40609H8.70358H9.18021H9.19475H9.44106H9.96002H10.0616C10.1064 6.40609 10.1491 6.40055 10.1893 6.39025C10.5257 6.30403 10.6863 5.88455 10.4509 5.59237L10.0616 5.10921L9.90701 4.91741L9.89789 4.90609ZM14.8259 4.22559L16.0217 2.74159L17.1266 4.11274C16.4174 4.57876 16.1411 5.58547 16.693 6.37293L17.6367 7.71951H14.1645L15.1083 6.37293C15.619 5.64414 15.4204 4.72756 14.8259 4.22559Z" fill="#31775A"/>
</g>
</g>
</g>
<defs>
<clipPath id="clip0_1_410">
<rect width="20" height="20" fill="white" transform="translate(0.5)"/>
</clipPath>
<clipPath id="clip1_1_410">
<rect width="20" height="20" fill="white" transform="translate(0.5)"/>
</clipPath>
<clipPath id="clip2_1_410">
<rect width="20" height="20" fill="white" transform="translate(0.5)"/>
</clipPath>
</defs>
</svg>
