<svg width="30" height="30" viewBox="0 0 30 30" fill="none" xmlns="http://www.w3.org/2000/svg">
<path d="M19.9694 10.1337C19.0931 9.56389 18.4636 8.6495 18.2654 7.58589C18.2221 7.35254 18.1976 7.11649 18.1976 6.875H15.4029L15.3974 18.0729C15.3513 19.3264 14.3176 20.333 13.0532 20.333C12.6598 20.333 12.2907 20.2354 11.9651 20.0644C11.2163 19.671 10.7062 18.8869 10.7062 17.986C10.7062 16.6917 11.7589 15.6362 13.0559 15.6362C13.2974 15.6362 13.5307 15.677 13.7478 15.7448V13.5551V12.8931C13.5199 12.8632 13.2892 12.8416 13.0559 12.8416C10.2205 12.8416 7.91418 15.1479 7.91418 17.9832C7.91418 19.7225 8.78245 21.2636 10.1092 22.1944C10.9449 22.7804 11.9597 23.125 13.0559 23.125C15.8913 23.125 18.1976 20.8187 18.1976 17.9832V12.3043C19.2938 13.0911 20.6369 13.5551 22.0858 13.5551V11.3845V10.7632C21.3043 10.7605 20.5772 10.5298 19.9694 10.1337Z" fill="#D9D9D9"/>
</svg>
